<mxfile host="app.diagrams.net" agent="Mozilla/5.0 (Windows NT 10.0; Win64; x64; rv:139.0) Gecko/20100101 Firefox/139.0" version="27.1.4">
  <diagram name="Page-1" id="zZLpx7wAB389oMshkU3M">
    <mxGraphModel dx="1763" dy="1135" grid="1" gridSize="10" guides="1" tooltips="1" connect="1" arrows="1" fold="1" page="1" pageScale="1" pageWidth="850" pageHeight="1100" math="0" shadow="0">
      <root>
        <mxCell id="0" />
        <mxCell id="1" parent="0" />
        <mxCell id="3b7lZcqqfOM8807nRFcY-1" value="" style="edgeStyle=orthogonalEdgeStyle;rounded=0;orthogonalLoop=1;jettySize=auto;html=1;" edge="1" parent="1" source="3b7lZcqqfOM8807nRFcY-2" target="3b7lZcqqfOM8807nRFcY-3">
          <mxGeometry relative="1" as="geometry" />
        </mxCell>
        <mxCell id="3b7lZcqqfOM8807nRFcY-2" value="HomePage" style="html=1;whiteSpace=wrap;" vertex="1" parent="1">
          <mxGeometry x="40" y="40" width="110" height="50" as="geometry" />
        </mxCell>
        <mxCell id="3b7lZcqqfOM8807nRFcY-3" value="QuizPage" style="html=1;whiteSpace=wrap;" vertex="1" parent="1">
          <mxGeometry x="40" y="170" width="110" height="50" as="geometry" />
        </mxCell>
        <mxCell id="3b7lZcqqfOM8807nRFcY-4" value="Data" style="html=1;whiteSpace=wrap;" vertex="1" parent="1">
          <mxGeometry x="230" y="170" width="110" height="50" as="geometry" />
        </mxCell>
        <mxCell id="3b7lZcqqfOM8807nRFcY-5" value="ParseJson" style="whiteSpace=wrap;html=1;" vertex="1" parent="1">
          <mxGeometry x="225" y="280" width="120" height="60" as="geometry" />
        </mxCell>
        <mxCell id="3b7lZcqqfOM8807nRFcY-6" value="" style="endArrow=classic;startArrow=classic;html=1;rounded=0;exitX=1;exitY=0.5;exitDx=0;exitDy=0;entryX=0;entryY=0.5;entryDx=0;entryDy=0;" edge="1" parent="1" source="3b7lZcqqfOM8807nRFcY-3" target="3b7lZcqqfOM8807nRFcY-4">
          <mxGeometry width="50" height="50" relative="1" as="geometry">
            <mxPoint x="360" y="320" as="sourcePoint" />
            <mxPoint x="410" y="270" as="targetPoint" />
          </mxGeometry>
        </mxCell>
        <mxCell id="3b7lZcqqfOM8807nRFcY-7" value="" style="endArrow=classic;startArrow=classic;html=1;rounded=0;exitX=0.5;exitY=1;exitDx=0;exitDy=0;entryX=0.5;entryY=0;entryDx=0;entryDy=0;" edge="1" parent="1" source="3b7lZcqqfOM8807nRFcY-4" target="3b7lZcqqfOM8807nRFcY-5">
          <mxGeometry width="50" height="50" relative="1" as="geometry">
            <mxPoint x="285" y="220" as="sourcePoint" />
            <mxPoint x="290" y="280" as="targetPoint" />
          </mxGeometry>
        </mxCell>
        <mxCell id="3b7lZcqqfOM8807nRFcY-8" value="Array containing:" style="swimlane;fontStyle=0;childLayout=stackLayout;horizontal=1;startSize=26;fillColor=none;horizontalStack=0;resizeParent=1;resizeParentMax=0;resizeLast=0;collapsible=1;marginBottom=0;whiteSpace=wrap;html=1;" vertex="1" parent="1">
          <mxGeometry x="440" y="258" width="140" height="130" as="geometry" />
        </mxCell>
        <mxCell id="3b7lZcqqfOM8807nRFcY-9" value="&lt;div style=&quot;text-align: center;&quot;&gt;&lt;span style=&quot;background-color: transparent; color: light-dark(rgb(0, 0, 0), rgb(255, 255, 255));&quot;&gt;questions [ * ]&lt;/span&gt;&lt;/div&gt;" style="text;strokeColor=none;fillColor=none;align=left;verticalAlign=top;spacingLeft=4;spacingRight=4;overflow=hidden;rotatable=0;points=[[0,0.5],[1,0.5]];portConstraint=eastwest;whiteSpace=wrap;html=1;" vertex="1" parent="3b7lZcqqfOM8807nRFcY-8">
          <mxGeometry y="26" width="140" height="24" as="geometry" />
        </mxCell>
        <mxCell id="3b7lZcqqfOM8807nRFcY-10" value="controlFlow { }" style="text;strokeColor=none;fillColor=none;align=left;verticalAlign=top;spacingLeft=4;spacingRight=4;overflow=hidden;rotatable=0;points=[[0,0.5],[1,0.5]];portConstraint=eastwest;whiteSpace=wrap;html=1;" vertex="1" parent="3b7lZcqqfOM8807nRFcY-8">
          <mxGeometry y="50" width="140" height="28" as="geometry" />
        </mxCell>
        <mxCell id="3b7lZcqqfOM8807nRFcY-11" value="personalities { }" style="text;strokeColor=none;fillColor=none;align=left;verticalAlign=top;spacingLeft=4;spacingRight=4;overflow=hidden;rotatable=0;points=[[0,0.5],[1,0.5]];portConstraint=eastwest;whiteSpace=wrap;html=1;" vertex="1" parent="3b7lZcqqfOM8807nRFcY-8">
          <mxGeometry y="78" width="140" height="26" as="geometry" />
        </mxCell>
        <mxCell id="3b7lZcqqfOM8807nRFcY-12" value="answers { }" style="text;strokeColor=none;fillColor=none;align=left;verticalAlign=top;spacingLeft=4;spacingRight=4;overflow=hidden;rotatable=0;points=[[0,0.5],[1,0.5]];portConstraint=eastwest;whiteSpace=wrap;html=1;" vertex="1" parent="3b7lZcqqfOM8807nRFcY-8">
          <mxGeometry y="104" width="140" height="26" as="geometry" />
        </mxCell>
        <mxCell id="3b7lZcqqfOM8807nRFcY-13" value="" style="group" vertex="1" connectable="0" parent="1">
          <mxGeometry x="360" y="270" width="60" height="30" as="geometry" />
        </mxCell>
        <mxCell id="3b7lZcqqfOM8807nRFcY-14" value="" style="edgeStyle=orthogonalEdgeStyle;rounded=0;orthogonalLoop=1;jettySize=auto;html=1;" edge="1" parent="3b7lZcqqfOM8807nRFcY-13" source="3b7lZcqqfOM8807nRFcY-8" target="3b7lZcqqfOM8807nRFcY-5">
          <mxGeometry relative="1" as="geometry" />
        </mxCell>
        <mxCell id="3b7lZcqqfOM8807nRFcY-15" value="Returns the data as" style="text;html=1;align=center;verticalAlign=middle;whiteSpace=wrap;rounded=0;" vertex="1" parent="3b7lZcqqfOM8807nRFcY-13">
          <mxGeometry width="60" height="30" as="geometry" />
        </mxCell>
        <mxCell id="3b7lZcqqfOM8807nRFcY-16" value="questions" style="swimlane;fontStyle=0;childLayout=stackLayout;horizontal=1;startSize=26;fillColor=none;horizontalStack=0;resizeParent=1;resizeParentMax=0;resizeLast=0;collapsible=1;marginBottom=0;whiteSpace=wrap;html=1;" vertex="1" parent="1">
          <mxGeometry x="830" y="140" width="140" height="130" as="geometry" />
        </mxCell>
        <mxCell id="3b7lZcqqfOM8807nRFcY-17" value="&lt;div style=&quot;text-align: center;&quot;&gt;id&lt;/div&gt;" style="text;strokeColor=none;fillColor=none;align=left;verticalAlign=top;spacingLeft=4;spacingRight=4;overflow=hidden;rotatable=0;points=[[0,0.5],[1,0.5]];portConstraint=eastwest;whiteSpace=wrap;html=1;" vertex="1" parent="3b7lZcqqfOM8807nRFcY-16">
          <mxGeometry y="26" width="140" height="24" as="geometry" />
        </mxCell>
        <mxCell id="3b7lZcqqfOM8807nRFcY-18" value="questionId&lt;span style=&quot;white-space: pre;&quot;&gt;&#x9;&lt;/span&gt;" style="text;strokeColor=none;fillColor=none;align=left;verticalAlign=top;spacingLeft=4;spacingRight=4;overflow=hidden;rotatable=0;points=[[0,0.5],[1,0.5]];portConstraint=eastwest;whiteSpace=wrap;html=1;" vertex="1" parent="3b7lZcqqfOM8807nRFcY-16">
          <mxGeometry y="50" width="140" height="28" as="geometry" />
        </mxCell>
        <mxCell id="3b7lZcqqfOM8807nRFcY-19" value="Question" style="text;strokeColor=none;fillColor=none;align=left;verticalAlign=top;spacingLeft=4;spacingRight=4;overflow=hidden;rotatable=0;points=[[0,0.5],[1,0.5]];portConstraint=eastwest;whiteSpace=wrap;html=1;" vertex="1" parent="3b7lZcqqfOM8807nRFcY-16">
          <mxGeometry y="78" width="140" height="26" as="geometry" />
        </mxCell>
        <mxCell id="3b7lZcqqfOM8807nRFcY-20" value="Answers [ * ]" style="text;strokeColor=none;fillColor=none;align=left;verticalAlign=top;spacingLeft=4;spacingRight=4;overflow=hidden;rotatable=0;points=[[0,0.5],[1,0.5]];portConstraint=eastwest;whiteSpace=wrap;html=1;" vertex="1" parent="3b7lZcqqfOM8807nRFcY-16">
          <mxGeometry y="104" width="140" height="26" as="geometry" />
        </mxCell>
        <mxCell id="3b7lZcqqfOM8807nRFcY-21" value="" style="edgeStyle=orthogonalEdgeStyle;rounded=0;orthogonalLoop=1;jettySize=auto;html=1;entryX=-0.001;entryY=0.078;entryDx=0;entryDy=0;entryPerimeter=0;exitX=1;exitY=0.5;exitDx=0;exitDy=0;" edge="1" parent="1" source="3b7lZcqqfOM8807nRFcY-9" target="3b7lZcqqfOM8807nRFcY-16">
          <mxGeometry relative="1" as="geometry">
            <mxPoint x="650" y="362" as="targetPoint" />
            <Array as="points">
              <mxPoint x="740" y="296" />
              <mxPoint x="740" y="150" />
            </Array>
          </mxGeometry>
        </mxCell>
        <mxCell id="3b7lZcqqfOM8807nRFcY-22" value="controlFlow" style="swimlane;fontStyle=0;childLayout=stackLayout;horizontal=1;startSize=26;fillColor=none;horizontalStack=0;resizeParent=1;resizeParentMax=0;resizeLast=0;collapsible=1;marginBottom=0;whiteSpace=wrap;html=1;" vertex="1" parent="1">
          <mxGeometry x="800" y="360" width="140" height="52" as="geometry" />
        </mxCell>
        <mxCell id="3b7lZcqqfOM8807nRFcY-23" value="Key : int" style="text;strokeColor=none;fillColor=none;align=left;verticalAlign=top;spacingLeft=4;spacingRight=4;overflow=hidden;rotatable=0;points=[[0,0.5],[1,0.5]];portConstraint=eastwest;whiteSpace=wrap;html=1;" vertex="1" parent="3b7lZcqqfOM8807nRFcY-22">
          <mxGeometry y="26" width="140" height="26" as="geometry" />
        </mxCell>
        <mxCell id="3b7lZcqqfOM8807nRFcY-24" value="" style="endArrow=classic;html=1;rounded=0;exitX=1;exitY=0.5;exitDx=0;exitDy=0;entryX=-0.004;entryY=0.076;entryDx=0;entryDy=0;entryPerimeter=0;" edge="1" parent="1" source="3b7lZcqqfOM8807nRFcY-10" target="3b7lZcqqfOM8807nRFcY-22">
          <mxGeometry width="50" height="50" relative="1" as="geometry">
            <mxPoint x="690" y="490" as="sourcePoint" />
            <mxPoint x="740" y="440" as="targetPoint" />
          </mxGeometry>
        </mxCell>
        <mxCell id="3b7lZcqqfOM8807nRFcY-25" value="personalities" style="swimlane;fontStyle=0;childLayout=stackLayout;horizontal=1;startSize=26;fillColor=none;horizontalStack=0;resizeParent=1;resizeParentMax=0;resizeLast=0;collapsible=1;marginBottom=0;whiteSpace=wrap;html=1;" vertex="1" parent="1">
          <mxGeometry x="800" y="450" width="140" height="52" as="geometry" />
        </mxCell>
        <mxCell id="3b7lZcqqfOM8807nRFcY-26" value="personalityId { }&amp;nbsp;" style="text;strokeColor=none;fillColor=none;align=left;verticalAlign=top;spacingLeft=4;spacingRight=4;overflow=hidden;rotatable=0;points=[[0,0.5],[1,0.5]];portConstraint=eastwest;whiteSpace=wrap;html=1;" vertex="1" parent="3b7lZcqqfOM8807nRFcY-25">
          <mxGeometry y="26" width="140" height="26" as="geometry" />
        </mxCell>
        <mxCell id="3b7lZcqqfOM8807nRFcY-27" value="" style="endArrow=classic;html=1;rounded=0;exitX=1;exitY=0.5;exitDx=0;exitDy=0;entryX=0;entryY=0.25;entryDx=0;entryDy=0;" edge="1" parent="1" source="3b7lZcqqfOM8807nRFcY-11" target="3b7lZcqqfOM8807nRFcY-25">
          <mxGeometry width="50" height="50" relative="1" as="geometry">
            <mxPoint x="740" y="350" as="sourcePoint" />
            <mxPoint x="959" y="392" as="targetPoint" />
          </mxGeometry>
        </mxCell>
        <mxCell id="3b7lZcqqfOM8807nRFcY-28" value="personalityId" style="swimlane;fontStyle=0;childLayout=stackLayout;horizontal=1;startSize=26;fillColor=none;horizontalStack=0;resizeParent=1;resizeParentMax=0;resizeLast=0;collapsible=1;marginBottom=0;whiteSpace=wrap;html=1;" vertex="1" parent="1">
          <mxGeometry x="1110" y="360" width="140" height="130" as="geometry" />
        </mxCell>
        <mxCell id="3b7lZcqqfOM8807nRFcY-29" value="name" style="text;strokeColor=none;fillColor=none;align=left;verticalAlign=top;spacingLeft=4;spacingRight=4;overflow=hidden;rotatable=0;points=[[0,0.5],[1,0.5]];portConstraint=eastwest;whiteSpace=wrap;html=1;" vertex="1" parent="3b7lZcqqfOM8807nRFcY-28">
          <mxGeometry y="26" width="140" height="26" as="geometry" />
        </mxCell>
        <mxCell id="3b7lZcqqfOM8807nRFcY-30" value="title&lt;span style=&quot;white-space: pre;&quot;&gt;&#x9;&lt;/span&gt;&lt;div&gt;&lt;br&gt;&lt;/div&gt;" style="text;strokeColor=none;fillColor=none;align=left;verticalAlign=top;spacingLeft=4;spacingRight=4;overflow=hidden;rotatable=0;points=[[0,0.5],[1,0.5]];portConstraint=eastwest;whiteSpace=wrap;html=1;" vertex="1" parent="3b7lZcqqfOM8807nRFcY-28">
          <mxGeometry y="52" width="140" height="26" as="geometry" />
        </mxCell>
        <mxCell id="3b7lZcqqfOM8807nRFcY-31" value="description" style="text;strokeColor=none;fillColor=none;align=left;verticalAlign=top;spacingLeft=4;spacingRight=4;overflow=hidden;rotatable=0;points=[[0,0.5],[1,0.5]];portConstraint=eastwest;whiteSpace=wrap;html=1;" vertex="1" parent="3b7lZcqqfOM8807nRFcY-28">
          <mxGeometry y="78" width="140" height="26" as="geometry" />
        </mxCell>
        <mxCell id="3b7lZcqqfOM8807nRFcY-32" value="score : int" style="text;strokeColor=none;fillColor=none;align=left;verticalAlign=top;spacingLeft=4;spacingRight=4;overflow=hidden;rotatable=0;points=[[0,0.5],[1,0.5]];portConstraint=eastwest;whiteSpace=wrap;html=1;" vertex="1" parent="3b7lZcqqfOM8807nRFcY-28">
          <mxGeometry y="104" width="140" height="26" as="geometry" />
        </mxCell>
        <mxCell id="3b7lZcqqfOM8807nRFcY-33" value="" style="endArrow=classic;html=1;rounded=0;exitX=1;exitY=0.5;exitDx=0;exitDy=0;entryX=-0.014;entryY=0.096;entryDx=0;entryDy=0;entryPerimeter=0;" edge="1" parent="1" source="3b7lZcqqfOM8807nRFcY-26" target="3b7lZcqqfOM8807nRFcY-28">
          <mxGeometry width="50" height="50" relative="1" as="geometry">
            <mxPoint x="670" y="400" as="sourcePoint" />
            <mxPoint x="890" y="514" as="targetPoint" />
          </mxGeometry>
        </mxCell>
        <mxCell id="3b7lZcqqfOM8807nRFcY-34" value="" style="endArrow=classic;html=1;rounded=0;exitX=1.02;exitY=0.303;exitDx=0;exitDy=0;exitPerimeter=0;" edge="1" parent="1" source="3b7lZcqqfOM8807nRFcY-12">
          <mxGeometry width="50" height="50" relative="1" as="geometry">
            <mxPoint x="620" y="370" as="sourcePoint" />
            <mxPoint x="790" y="540" as="targetPoint" />
          </mxGeometry>
        </mxCell>
        <mxCell id="3b7lZcqqfOM8807nRFcY-35" value="answers" style="swimlane;fontStyle=0;childLayout=stackLayout;horizontal=1;startSize=26;fillColor=none;horizontalStack=0;resizeParent=1;resizeParentMax=0;resizeLast=0;collapsible=1;marginBottom=0;whiteSpace=wrap;html=1;" vertex="1" parent="1">
          <mxGeometry x="800" y="530" width="140" height="52" as="geometry" />
        </mxCell>
        <mxCell id="3b7lZcqqfOM8807nRFcY-36" value="answerId { }" style="text;strokeColor=none;fillColor=none;align=left;verticalAlign=top;spacingLeft=4;spacingRight=4;overflow=hidden;rotatable=0;points=[[0,0.5],[1,0.5]];portConstraint=eastwest;whiteSpace=wrap;html=1;" vertex="1" parent="3b7lZcqqfOM8807nRFcY-35">
          <mxGeometry y="26" width="140" height="26" as="geometry" />
        </mxCell>
        <mxCell id="3b7lZcqqfOM8807nRFcY-37" value="answerId" style="swimlane;fontStyle=0;childLayout=stackLayout;horizontal=1;startSize=26;fillColor=none;horizontalStack=0;resizeParent=1;resizeParentMax=0;resizeLast=0;collapsible=1;marginBottom=0;whiteSpace=wrap;html=1;" vertex="1" parent="1">
          <mxGeometry x="1110" y="530" width="140" height="78" as="geometry" />
        </mxCell>
        <mxCell id="3b7lZcqqfOM8807nRFcY-38" value="weight" style="text;strokeColor=none;fillColor=none;align=left;verticalAlign=top;spacingLeft=4;spacingRight=4;overflow=hidden;rotatable=0;points=[[0,0.5],[1,0.5]];portConstraint=eastwest;whiteSpace=wrap;html=1;" vertex="1" parent="3b7lZcqqfOM8807nRFcY-37">
          <mxGeometry y="26" width="140" height="26" as="geometry" />
        </mxCell>
        <mxCell id="3b7lZcqqfOM8807nRFcY-39" value="&lt;div&gt;association&lt;/div&gt;" style="text;strokeColor=none;fillColor=none;align=left;verticalAlign=top;spacingLeft=4;spacingRight=4;overflow=hidden;rotatable=0;points=[[0,0.5],[1,0.5]];portConstraint=eastwest;whiteSpace=wrap;html=1;" vertex="1" parent="3b7lZcqqfOM8807nRFcY-37">
          <mxGeometry y="52" width="140" height="26" as="geometry" />
        </mxCell>
        <mxCell id="3b7lZcqqfOM8807nRFcY-40" value="" style="endArrow=classic;html=1;rounded=0;exitX=1;exitY=0.5;exitDx=0;exitDy=0;entryX=0.017;entryY=0.106;entryDx=0;entryDy=0;entryPerimeter=0;" edge="1" parent="1" source="3b7lZcqqfOM8807nRFcY-36" target="3b7lZcqqfOM8807nRFcY-37">
          <mxGeometry width="50" height="50" relative="1" as="geometry">
            <mxPoint x="1010" y="567" as="sourcePoint" />
            <mxPoint x="1178" y="450" as="targetPoint" />
          </mxGeometry>
        </mxCell>
        <mxCell id="3b7lZcqqfOM8807nRFcY-41" value="Answers" style="swimlane;fontStyle=0;childLayout=stackLayout;horizontal=1;startSize=26;fillColor=none;horizontalStack=0;resizeParent=1;resizeParentMax=0;resizeLast=0;collapsible=1;marginBottom=0;whiteSpace=wrap;html=1;" vertex="1" parent="1">
          <mxGeometry x="1090" y="150" width="140" height="52" as="geometry" />
        </mxCell>
        <mxCell id="3b7lZcqqfOM8807nRFcY-42" value="answerId { }" style="text;strokeColor=none;fillColor=none;align=left;verticalAlign=top;spacingLeft=4;spacingRight=4;overflow=hidden;rotatable=0;points=[[0,0.5],[1,0.5]];portConstraint=eastwest;whiteSpace=wrap;html=1;" vertex="1" parent="3b7lZcqqfOM8807nRFcY-41">
          <mxGeometry y="26" width="140" height="26" as="geometry" />
        </mxCell>
        <mxCell id="3b7lZcqqfOM8807nRFcY-43" value="" style="endArrow=classic;html=1;rounded=0;exitX=1;exitY=0.5;exitDx=0;exitDy=0;entryX=-0.014;entryY=0.096;entryDx=0;entryDy=0;entryPerimeter=0;" edge="1" parent="1" source="3b7lZcqqfOM8807nRFcY-20" target="3b7lZcqqfOM8807nRFcY-41">
          <mxGeometry width="50" height="50" relative="1" as="geometry">
            <mxPoint x="740" y="57" as="sourcePoint" />
            <mxPoint x="870" y="304" as="targetPoint" />
          </mxGeometry>
        </mxCell>
        <mxCell id="3b7lZcqqfOM8807nRFcY-44" value="answerId" style="swimlane;fontStyle=0;childLayout=stackLayout;horizontal=1;startSize=26;fillColor=none;horizontalStack=0;resizeParent=1;resizeParentMax=0;resizeLast=0;collapsible=1;marginBottom=0;whiteSpace=wrap;html=1;" vertex="1" parent="1">
          <mxGeometry x="1340" y="90" width="140" height="52" as="geometry" />
        </mxCell>
        <mxCell id="3b7lZcqqfOM8807nRFcY-45" value="answer" style="text;strokeColor=none;fillColor=none;align=left;verticalAlign=top;spacingLeft=4;spacingRight=4;overflow=hidden;rotatable=0;points=[[0,0.5],[1,0.5]];portConstraint=eastwest;whiteSpace=wrap;html=1;" vertex="1" parent="3b7lZcqqfOM8807nRFcY-44">
          <mxGeometry y="26" width="140" height="26" as="geometry" />
        </mxCell>
        <mxCell id="3b7lZcqqfOM8807nRFcY-46" value="" style="endArrow=classic;html=1;rounded=0;exitX=1;exitY=0.25;exitDx=0;exitDy=0;entryX=0.017;entryY=0.106;entryDx=0;entryDy=0;entryPerimeter=0;" edge="1" parent="1" source="3b7lZcqqfOM8807nRFcY-41" target="3b7lZcqqfOM8807nRFcY-44">
          <mxGeometry width="50" height="50" relative="1" as="geometry">
            <mxPoint x="1330" y="549" as="sourcePoint" />
            <mxPoint x="1568" y="430" as="targetPoint" />
          </mxGeometry>
        </mxCell>
      </root>
    </mxGraphModel>
  </diagram>
</mxfile>
